<svg viewBox="0 0 37 62" fill="none" xmlns="http://www.w3.org/2000/svg">
<path d="M26.8986 45.87L19.1986 49.4L11.8186 45.87L3.34863 47.15L4.75863 61.59H33.3186L34.7686 46.9L26.8986 45.87Z" fill="white"/>
<path d="M21.2986 14.87H16.8086V32.2H21.2986V14.87Z" fill="#3FA9F5"/>
<path d="M24.6486 44.87C21.8586 49.94 18.8086 50.2 16.9486 48.53C13.9486 45.87 13.6686 42.47 9.59856 48.79C8.21856 50.94 5.59856 49.53 4.13856 48.21C3.21436 47.3653 2.56005 46.2666 2.25764 45.0516C1.95523 43.8366 2.01816 42.5594 2.43856 41.38C5.06856 33.74 11.5586 28.38 19.1286 28.38C26.6986 28.38 32.9286 33.58 35.6586 40.99C36.1714 42.3728 36.172 43.8936 35.6602 45.2768C35.1484 46.66 34.158 47.8141 32.8686 48.53C30.7786 49.65 28.2386 49.59 26.2886 45C26.2119 44.828 26.0848 44.6833 25.9241 44.5851C25.7634 44.4869 25.5766 44.4398 25.3886 44.45C25.2394 44.4498 25.0927 44.4884 24.963 44.5621C24.8332 44.6357 24.7249 44.7418 24.6486 44.87Z" fill="#FF7BAC"/>
<path d="M23.5786 44.23C20.7886 49.3 17.7386 49.56 15.8786 47.89C12.8786 45.23 12.6086 41.83 8.52861 48.15C7.14861 50.3 4.52861 48.89 3.06861 47.57C2.14467 46.7229 1.4907 45.6225 1.18837 44.4061C0.886033 43.1896 0.948724 41.911 1.36861 40.73C3.99861 33.1 10.4886 27.73 18.0586 27.73C25.6286 27.73 31.8586 32.93 34.5886 40.35C35.0994 41.733 35.0989 43.253 34.5873 44.6357C34.0757 46.0184 33.0866 47.1726 31.7986 47.89C29.7086 49.01 27.1686 48.95 25.2186 44.36C25.1419 44.188 25.0148 44.0433 24.8541 43.9451C24.6934 43.8469 24.5067 43.7998 24.3186 43.81V43.81C24.169 43.8078 24.0216 43.8455 23.8915 43.9194C23.7614 43.9932 23.6534 44.1004 23.5786 44.23V44.23Z" stroke="#333333" stroke-miterlimit="10"/>
<path d="M2.20862 46.64L3.61862 61.08H32.1786L33.6286 46.38" stroke="#333333" stroke-miterlimit="10"/>
<path d="M25.7587 61.08V45.36" stroke="#333333" stroke-miterlimit="10"/>
<path d="M10.6786 61.72V45.36" stroke="#333333" stroke-miterlimit="10"/>
<path d="M18.0586 61.72V48.89" stroke="#333333" stroke-miterlimit="10"/>
<path d="M20.2686 12.94H15.7786V30.27H20.2686V12.94Z" stroke="#333333" stroke-miterlimit="10"/>
<path d="M21.1787 6.95C21.1787 7.18 21.1787 10.3 18.9587 10.95C17.1687 11.5 15.0987 10.04 14.9587 8.73C14.8287 7.62 16.1687 7.17 16.7287 5.53C17.1079 3.99399 16.8786 2.37083 16.0887 1C17.9293 1.57552 19.4971 2.80203 20.4987 4.45C20.9355 5.21143 21.1696 6.07221 21.1787 6.95Z" fill="#FBB03B" stroke="#FBB03B" stroke-miterlimit="10"/>
<path d="M23.5786 34.67L25.7286 33.93" stroke="white" stroke-miterlimit="10" stroke-linecap="round"/>
<path d="M11.9586 38.62L13.5686 40.22" stroke="white" stroke-miterlimit="10" stroke-linecap="round"/>
<path d="M19.3787 39.68L21.5887 39.16" stroke="white" stroke-miterlimit="10" stroke-linecap="round"/>
<path d="M26.0786 38.94L27.6886 40.54" stroke="white" stroke-miterlimit="10" stroke-linecap="round"/>
<path d="M16.5786 35.05L18.6086 36.08" stroke="white" stroke-miterlimit="10" stroke-linecap="round"/>
<path d="M12.5086 34.67L11.0986 36.47" stroke="white" stroke-miterlimit="10" stroke-linecap="round"/>
<path d="M7.91858 39.23L9.90858 40.25" stroke="white" stroke-miterlimit="10" stroke-linecap="round"/>
<path d="M6.72864 40.7L7.88864 42.63" stroke="white" stroke-miterlimit="10" stroke-linecap="round"/>
<path d="M16.8086 42.21L19.0586 41.76" stroke="white" stroke-miterlimit="10" stroke-linecap="round"/>
</svg>
