<svg id="Layer_1" data-name="Layer 1" xmlns="http://www.w3.org/2000/svg" viewBox="0 0 80 80"><defs><style>.cls-1{fill:#ff7bac;}.cls-2{fill:#3fa9f5;}.cls-3{fill:#ff931e;}.cls-4{fill:#7ac943;}.cls-5{fill:none;stroke:#000;stroke-miterlimit:10;}</style></defs><title>puzzle_piece_icon</title><path class="cls-1" d="M41.17,22.2A4.72,4.72,0,0,1,33,25.39V35.93h-7.4a7.2,7.2,0,0,0,.24-2.38,6.57,6.57,0,0,0-13.1,1.11A4.89,4.89,0,0,0,12.94,36H5.24a10.67,10.67,0,0,1,2-6.35,1.58,1.58,0,0,0,.36-.89C7.1,22.8,8.7,20,14.15,17.63A7.75,7.75,0,0,1,18,8.91C20.42,7.75,22.61,6,25.07,4.77a7.65,7.65,0,0,1,6.43-.48A6.56,6.56,0,0,1,33,5.23V19a4.7,4.7,0,0,1,3.49-1.54A4.76,4.76,0,0,1,41.17,22.2Z"/><path class="cls-2" d="M69.54,35.71H59.44a5.34,5.34,0,1,1-9.65,3.16,5.08,5.08,0,0,1,1.06-3.16h-9V28a6.26,6.26,0,0,0,2,.33,6.35,6.35,0,0,0,0-12.7,5.66,5.66,0,0,0-2,.35V5c1.76-1.67,3.89-1.7,6.11-1a25.68,25.68,0,0,1,8.26,4.27,5.39,5.39,0,0,0,.6.43c3.56,1.89,4.59,4.89,3.92,8.76l.62.27a8.87,8.87,0,0,1,5.89,10.07c-.22,1.3.59,1.92,1,2.76A10,10,0,0,1,69.54,35.71Z"/><path class="cls-3" d="M24.46,54.77A6.53,6.53,0,0,0,31,61.31a6,6,0,0,0,1.41-.16V69a13.28,13.28,0,0,1-4,3.08,8.31,8.31,0,0,1-5.75.65A10.77,10.77,0,0,1,16.3,68.5a2.75,2.75,0,0,0-.89-.81A9.76,9.76,0,0,1,9.3,59.91,8.87,8.87,0,0,0,6.87,55C4.31,52,4.06,48.4,5.66,44.78a1.74,1.74,0,0,0,0-1.63,11.67,11.67,0,0,1-.81-2.37h9.54A5.05,5.05,0,0,1,13.6,38a5.11,5.11,0,1,1,10.21,0A5,5,0,0,1,23,40.78h9.41v7.56A6,6,0,0,0,31,48.18,6.6,6.6,0,0,0,24.46,54.77Z"/><path class="cls-4" d="M74.73,63a1.29,1.29,0,0,0-.46.92c0,4.81-2.32,8-6.48,10.16a2.45,2.45,0,0,0-.79.78c-3,3.79-7,5.41-11.37,3.87a10.31,10.31,0,0,1-4.76-3.43V65.08A4.88,4.88,0,1,1,48,56.22a4.83,4.83,0,0,1,2.83.92v-10h7a6.13,6.13,0,0,0-.21,1.73,6.53,6.53,0,1,0,13-.06,7.73,7.73,0,0,0-.22-1.73h7.94a10.53,10.53,0,0,1-.92,2.7,1.41,1.41,0,0,0,0,1C79.62,54.81,78.54,60.43,74.73,63Z"/><path class="cls-5" d="M39.8,21.17A4.82,4.82,0,0,1,35,26a4.75,4.75,0,0,1-3.54-1.56V35.09H24a6.88,6.88,0,0,0,.24-2.41A6.64,6.64,0,1,0,11,33.76a4.91,4.91,0,0,0,.25,1.3H3.4a10.73,10.73,0,0,1,2.05-6.43,1.53,1.53,0,0,0,.36-.89c-.54-6,1.08-8.78,6.62-11.24a7.81,7.81,0,0,1,3.86-8.84c2.51-1.18,4.7-3,7.19-4.18A7.69,7.69,0,0,1,30,3a6.29,6.29,0,0,1,1.48,1V17.9a4.79,4.79,0,0,1,8.33,3.27Z"/><path class="cls-5" d="M67.87,35.2H57.63a5.3,5.3,0,0,1,1,3.21,5.43,5.43,0,0,1-10.86,0,5.3,5.3,0,0,1,1-3.21H39.74V27.36A6.43,6.43,0,1,0,41.8,14.85a5.87,5.87,0,0,0-2.06.35V4.12C41.53,2.45,43.69,2.4,45.93,3a27.17,27.17,0,0,1,8.38,4.33,4.48,4.48,0,0,0,.59.43c3.62,1.89,4.65,5,4,8.86.19.08.41.19.65.27a9,9,0,0,1,6,10.22c-.21,1.29.62,1.94,1.06,2.78A9.88,9.88,0,0,1,67.87,35.2Z"/><path class="cls-5" d="M23.27,53.58a6.63,6.63,0,0,0,6.62,6.62A6,6,0,0,0,31.3,60V68a12.86,12.86,0,0,1-4,3.14,8.24,8.24,0,0,1-5.83.65A10.82,10.82,0,0,1,15,67.47a2.54,2.54,0,0,0-.89-.81A9.83,9.83,0,0,1,7.9,58.8a9.09,9.09,0,0,0-2.46-5c-2.59-3-2.84-6.65-1.21-10.29a1.74,1.74,0,0,0,0-1.63,12.74,12.74,0,0,1-.84-2.4h9.68a5.16,5.16,0,0,1,4.35-7.94A5.18,5.18,0,0,1,22.6,36.7a4.9,4.9,0,0,1-.84,2.78H31.3v7.65A6,6,0,0,0,29.89,47,6.64,6.64,0,0,0,23.27,53.58Z"/><path class="cls-5" d="M72.92,61.76a1.32,1.32,0,0,0-.46.92c0,4.86-2.35,8.13-6.59,10.26a2.89,2.89,0,0,0-.81.79c-3.05,3.83-7.13,5.48-11.54,3.91a10.53,10.53,0,0,1-4.81-3.48V63.84a4.88,4.88,0,0,1-2.89.92,4.95,4.95,0,0,1,0-9.89,5,5,0,0,1,2.89.92V45.68h7.11a6.34,6.34,0,0,0-.24,1.73,6.62,6.62,0,1,0,13.23,0,6.18,6.18,0,0,0-.24-1.73h8.08a12.73,12.73,0,0,1-.92,2.73,1.36,1.36,0,0,0,0,1C77.87,53.49,76.76,59.16,72.92,61.76Z"/></svg>