<svg viewBox="0 0 36 63" fill="none" xmlns="http://www.w3.org/2000/svg">
<path d="M18.1 52.08L18.25 35.63" stroke="#7AC943" stroke-width="2" stroke-miterlimit="10"/>
<path d="M20.93 62.31C19.12 37.72 3.57996 37.57 3.57996 37.57C15.65 44.51 16.86 62.31 16.86 62.31H20.93Z" fill="#7AC943"/>
<path d="M20.61 59.47C21.61 53.94 25.61 43.18 34.34 38.15C34.34 38.15 23.78 38.43 18.95 51.63" fill="#7AC943"/>
<path d="M35.32 23.94C35.32 27.36 31.51 30.39 27.73 31.87C27.6276 31.9112 27.5167 31.9264 27.4071 31.9144C27.2974 31.9024 27.1924 31.8635 27.1014 31.8012C27.0104 31.7389 26.9361 31.6551 26.8853 31.5571C26.8345 31.4592 26.8086 31.3503 26.81 31.24C26.8069 31.1324 26.831 31.0258 26.88 30.93C28.32 28.1 28.59 25.5 27.7 23.21C27.7594 23.5938 27.7895 23.9816 27.79 24.37C27.79 27.83 23.36 32.19 20.04 35.18C19.79 35.39 19.54 35.63 19.46 35.7C19.4074 35.7756 19.337 35.837 19.255 35.8788C19.173 35.9207 19.082 35.9417 18.99 35.94H18.84C18.25 35.8 15.93 33.74 14.15 31.78C12.52 29.98 10.61 27.49 10.15 25.28C9.73877 27.4746 10.0917 29.7439 11.15 31.71C11.2162 31.8527 11.2383 32.0119 11.2135 32.1673C11.1887 32.3227 11.118 32.4671 11.0106 32.582C10.9032 32.697 10.7639 32.7772 10.6105 32.8125C10.4572 32.8478 10.2968 32.8364 10.15 32.78C6.51999 31.23 2.85999 28.13 2.85999 24.69C2.87831 23.4332 3.16844 22.1952 3.71046 21.0611C4.25247 19.927 5.03353 18.9237 5.99999 18.12C6.60822 17.6083 7.28055 17.178 7.99999 16.84C7.82714 16.3143 7.7927 15.7529 7.89999 15.21C8.04338 14.1278 8.51682 13.1161 9.25583 12.3127C9.99485 11.5093 10.9635 10.9531 12.03 10.72C11.8875 9.97592 11.784 9.22489 11.72 8.47C11.63 7.47 11.62 6.72 11.62 6.36C11.62 5.36 11.68 5.18 11.93 5L12.32 4.7L12.61 5.02L12.82 5.13C13.9355 5.70809 14.9849 6.40551 15.95 7.21V2.28L16.85 2.98C18.7725 4.49355 20.2085 6.53803 20.98 8.86C22.2935 7.62387 23.6721 6.45888 25.11 5.37L25.51 5.06L25.82 4.71L26.24 4.99C26.49 5.17 26.54 5.38 26.54 6.35C26.54 6.72 26.54 7.49 26.44 8.46C26.376 9.21489 26.2725 9.96592 26.13 10.71C28.92 11.46 30.75 13.22 30.75 15.22C30.7472 16.1477 30.4219 17.0456 29.83 17.76C30.22 17.91 30.59 18.08 30.95 18.25C33.78 19.68 35.32 21.64 35.32 23.94Z" fill="#A37FCF" stroke="#A37FCF" stroke-miterlimit="10"/>
<path d="M17.74 51.47L17.89 35.03" stroke="black" stroke-miterlimit="10"/>
<path d="M19.57 61.71C17.76 37.12 2.21997 37 2.21997 37C14.32 43.91 15.5 61.71 15.5 61.71H19.57Z" stroke="black" stroke-miterlimit="10"/>
<path d="M24.87 9.38C28 10.04 29.98 11.87 29.98 13.81C29.9634 14.8226 29.5505 15.7883 28.83 16.5" stroke="black" stroke-miterlimit="10"/>
<path d="M26.81 23.72C26.81 28.39 18.08 35.29 17.91 35.62C17.74 35.95 8.91003 28.39 8.91003 23.72C8.94366 22.5725 9.20326 21.443 9.67398 20.396C10.1447 19.349 10.8173 18.4051 11.6533 17.6183C12.4892 16.8316 13.4722 16.2174 14.5458 15.811C15.6194 15.4047 16.7626 15.214 17.91 15.25C20.2103 15.2042 22.4356 16.0683 24.1022 17.6544C25.7688 19.2404 26.742 21.4203 26.81 23.72V23.72Z" stroke="black" stroke-miterlimit="10"/>
<path d="M20.03 15.25C28.13 15.72 34.96 18.48 34.96 23.25C34.96 26.41 31.42 29.6 27.14 31.25C27.1245 31.2581 27.1074 31.2627 27.0899 31.2635C27.0724 31.2643 27.0549 31.2613 27.0387 31.2546C27.0225 31.248 27.008 31.2378 26.9961 31.2249C26.9842 31.212 26.9753 31.1967 26.97 31.18C26.9626 31.1626 26.9588 31.1439 26.9588 31.125C26.9588 31.1061 26.9626 31.0874 26.97 31.07C32.77 19.69 20.02 15.2 20.02 15.2" stroke="black" stroke-miterlimit="10"/>
<path d="M14 15.31C5.22 13.78 1 19.43 1 24C1 27.21 4.38 30.43 8.52 32.2C8.55081 32.213 8.5839 32.2196 8.61732 32.2196C8.65074 32.2195 8.68381 32.2128 8.71457 32.1997C8.74534 32.1867 8.77317 32.1676 8.79643 32.1436C8.8197 32.1196 8.83791 32.0912 8.85 32.06C8.8646 32.0269 8.87215 31.9912 8.87215 31.955C8.87215 31.9188 8.8646 31.8831 8.85 31.85C6.55 26.98 7.65 23.39 9.45 20.85" stroke="black" stroke-miterlimit="10"/>
<path d="M15.93 15.75C15.27 15.57 14.62 15.42 14 15.31" stroke="black" stroke-miterlimit="10"/>
<path d="M19.06 8.83999C21.06 6.40999 25.19 3.40999 25.34 3.22999C25.49 3.04999 25.58 8.83999 24.09 11.57C22.6 14.3 20.26 15.92 18.87 15.16C17.48 14.4 15.95 12.68 19.06 8.83999Z" stroke="black" stroke-miterlimit="10"/>
<path d="M6.68002 15.73C6.41097 15.1563 6.33045 14.5122 6.45002 13.89C6.60548 12.7436 7.13454 11.6805 7.95527 10.8652C8.77601 10.0499 9.84264 9.52787 10.99 9.38" stroke="black" stroke-miterlimit="10"/>
<path d="M19.7001 8C19.0099 5.23061 17.4201 2.76858 15.1801 1V1V6.52" stroke="black" stroke-miterlimit="10"/>
<path d="M17.7 10.92C17.4922 10.1981 17.2072 9.50076 16.85 8.83999C14.85 5.13999 10.72 3.40999 10.57 3.22999C10.42 3.04999 10.32 8.83999 11.82 11.57C13.32 14.3 15.65 15.92 17.04 15.16C17.3667 14.9725 17.6205 14.68 17.76 14.33" stroke="black" stroke-miterlimit="10"/>
<path d="M19.25 58.87C20.25 53.34 24.25 42.58 32.98 37.55C32.98 37.55 22.42 37.82 17.59 51.02" stroke="black" stroke-miterlimit="10"/>
<path d="M23.41 21.23C23.41 24.29 18.95 28.79 18.86 29C18.77 29.21 14.24 24.29 14.24 21.23C14.24 18.17 16.32 15.7 18.82 15.7C21.32 15.7 23.41 18.17 23.41 21.23Z" fill="#442978"/>
<path d="M22.44 20.89C22.44 24 17.89 28.59 17.81 28.82C17.73 29.05 13.09 24 13.09 20.89C13.09 17.78 15.18 15.25 17.76 15.25C20.34 15.25 22.44 17.77 22.44 20.89Z" stroke="black" stroke-miterlimit="10"/>
</svg>
