<svg xmlns="http://www.w3.org/2000/svg" viewBox="0 0 58.96 61.65"><defs><style>.cls-1,.cls-8{fill:none;stroke:#000;stroke-miterlimit:10;}.cls-1{stroke-linecap:round;}.cls-2{fill:#3fa9f5;}.cls-3{fill:#ff7bac;}.cls-4{fill:#f15a24;}.cls-5{fill:#fbb03b;}.cls-6{fill:#7ac943;}.cls-7{fill:#a37fcf;}</style></defs><title>plot_icon</title><g id="Layer_2" data-name="Layer 2"><line class="cls-1" x1="5.3" y1="12.71" x2="3.44" y2="12.71"/><circle class="cls-2" cx="40.57" cy="13.18" r="2.82"/><circle class="cls-3" cx="24.11" cy="24.01" r="2.93"/><circle class="cls-4" cx="28.42" cy="34.66" r="2.84"/><circle class="cls-5" cx="35.49" cy="24.41" r="2.26"/><circle class="cls-6" cx="49.08" cy="27.07" r="2.72"/><circle class="cls-7" cx="41.15" cy="38.12" r="2.83"/><circle class="cls-5" cx="23.01" cy="47.97" r="2.57"/><circle class="cls-6" cx="15.63" cy="42.07" r="2.66"/></g><g id="Layer_1" data-name="Layer 1"><polyline class="cls-1" points="52.44 56.07 3.44 56.07 3.44 7.08"/><line class="cls-1" x1="5.3" y1="12.71" x2="3.44" y2="12.71"/><line class="cls-1" x1="5.3" y1="23.42" x2="3.44" y2="23.42"/><line class="cls-1" x1="5.3" y1="33.6" x2="3.44" y2="33.6"/><line class="cls-1" x1="5.3" y1="43.97" x2="3.44" y2="43.97"/><line class="cls-1" x1="15.34" y1="56.07" x2="15.34" y2="53.87"/><line class="cls-1" x1="25.61" y1="56.07" x2="25.61" y2="53.87"/><line class="cls-1" x1="46.51" y1="56.07" x2="46.51" y2="53.87"/><line class="cls-1" x1="36.2" y1="56.07" x2="36.2" y2="54.17"/><circle class="cls-8" cx="39.57" cy="12.18" r="2.82"/><circle class="cls-8" cx="23.11" cy="23.01" r="2.93"/><circle class="cls-8" cx="27.42" cy="33.66" r="2.84"/><circle class="cls-8" cx="34.49" cy="23.41" r="2.26"/><circle class="cls-8" cx="48.08" cy="26.07" r="2.72"/><circle class="cls-8" cx="40.15" cy="37.12" r="2.83"/><circle class="cls-8" cx="22.01" cy="46.97" r="2.57"/><circle class="cls-8" cx="14.63" cy="41.07" r="2.66"/></g></svg>