<svg id="Capa_1" data-name="Capa 1" xmlns="http://www.w3.org/2000/svg" viewBox="0 0 279.33 284.99"><defs><style>.cls-1{fill:#ff7bac;}.cls-2{fill:#3fa9f5;}.cls-3{fill:#ff931e;}.cls-4{fill:#7ac943;}.cls-5{fill:none;stroke:#000;stroke-miterlimit:10;stroke-width:2px;}</style></defs><title>puzzle_icon</title><path class="cls-1" d="M143.66,77.12A17.53,17.53,0,0,1,113.2,89v39H85.87a24.29,24.29,0,1,0-47.55-4.78A23.59,23.59,0,0,0,39.2,128H10.66c-.33-8.1,2.39-15.91,7.47-23.48a5.82,5.82,0,0,0,1.29-3.26c-1.94-21.89,4-32.11,24.15-41.05-3.41-12.46,3-27,14.11-32.25,9.13-4.31,17.19-10.9,26.3-15.3,7.35-3.55,15.66-5.25,23.77-1.82a24.69,24.69,0,0,1,5.45,3.53V65.26a17.53,17.53,0,0,1,30.46,11.86Z" transform="translate(-2.84 -3.25)"/><path class="cls-2" d="M248.75,127.14H211.33a19.6,19.6,0,0,1,3.86,11.74,19.82,19.82,0,1,1-39.64,0,19.6,19.6,0,0,1,3.86-11.74H146.08V98.52a23.51,23.51,0,1,0,7.54-45.77A22.77,22.77,0,0,0,146.08,54V13.59c6.48-6.16,14.42-6.32,22.59-3.94,11.19,3.23,21.27,8.93,30.63,15.83a18.25,18.25,0,0,0,2.16,1.6c13.2,7,17,18.12,14.53,32.36.71.32,1.5.71,2.32,1,15.86,6,24.74,20.59,21.83,37.33-.83,4.79,2.23,7.06,3.86,10.16A37.68,37.68,0,0,1,248.75,127.14Z" transform="translate(-2.84 -3.25)"/><path class="cls-3" d="M83.87,195.08a24.2,24.2,0,0,0,24.19,24.21,23.18,23.18,0,0,0,5.16-.57v29.07c-4.07,5-9.26,8.44-14.7,11.43-6.66,3.63-14.1,3.93-21.29,2.38-9.78-2.1-17.53-7.75-23.63-15.68a9.68,9.68,0,0,0-3.3-3c-12.7-5.57-20.75-15.45-22.61-28.75-1.07-7.67-4.11-12.63-9-18.28-9.54-11.12-10.4-24.33-4.46-37.7a6.18,6.18,0,0,0,.08-6,39.55,39.55,0,0,1-3-8.8H46.7a18.86,18.86,0,1,1,31.7,0h34.82v28a23.18,23.18,0,0,0-5.16-.57A24.2,24.2,0,0,0,83.87,195.08Z" transform="translate(-2.84 -3.25)"/><path class="cls-4" d="M267.94,228a4.58,4.58,0,0,0-1.68,3.36c.12,17.78-8.61,29.76-24,37.56a10.09,10.09,0,0,0-2.92,2.87c-11.2,14-26.06,20-42.14,14.28a37.89,37.89,0,0,1-17.61-12.75V235.59a18.07,18.07,0,1,1,0-29.37V169.29h25.93a23.81,23.81,0,0,0-.85,6.36,24.21,24.21,0,1,0,47.57-6.36h29.38a40.24,40.24,0,0,1-3.4,10,4.77,4.77,0,0,0,.15,3.77C286,197.84,282,218.57,267.94,228Z" transform="translate(-2.84 -3.25)"/><path class="cls-5" d="M138.59,73.28a17.77,17.77,0,0,1-30.86,12v39.53H80.05a24.17,24.17,0,0,0,.89-8.86,24.61,24.61,0,0,0-49.06,4,24.1,24.1,0,0,0,.9,4.83H3.87c-.34-8.2,2.41-16.11,7.56-23.78a5.87,5.87,0,0,0,1.31-3.3c-2-22.18,4-32.53,24.47-41.58-3.46-12.63,3-27.33,14.29-32.67,9.25-4.37,17.41-11,26.63-15.5C85.58,4.38,94,2.67,102.22,6.14a24.88,24.88,0,0,1,5.51,3.57V61.26a17.77,17.77,0,0,1,30.86,12Z" transform="translate(-2.84 -3.25)"/><path class="cls-5" d="M242.54,125.24h-37.9a19.85,19.85,0,0,1,3.91,11.89,20.08,20.08,0,1,1-40.16,0,19.85,19.85,0,0,1,3.91-11.89H138.54v-29a23.81,23.81,0,1,0,7.64-46.36,23.07,23.07,0,0,0-7.64,1.27V10.22c6.57-6.24,14.61-6.41,22.89-4,11.33,3.27,21.54,9,31,16a18.45,18.45,0,0,0,2.19,1.62c13.37,7,17.22,18.35,14.72,32.78.72.33,1.52.72,2.35,1,16.06,6.12,25.06,20.86,22.11,37.82-.84,4.85,2.27,7.15,3.91,10.28A38.07,38.07,0,0,1,242.54,125.24Z" transform="translate(-2.84 -3.25)"/><path class="cls-5" d="M79.49,190.71A24.51,24.51,0,0,0,104,215.23a23.2,23.2,0,0,0,5.22-.58v29.44c-4.12,5.1-9.38,8.56-14.89,11.58-6.75,3.68-14.28,4-21.57,2.42C62.86,256,55,250.24,48.82,242.2a9.8,9.8,0,0,0-3.33-3c-12.86-5.64-21-15.65-22.9-29.12-1.09-7.77-4.17-12.79-9.08-18.52C3.85,180.3,3,166.92,9,153.38a6.29,6.29,0,0,0,.09-6A39.58,39.58,0,0,1,6,138.42H41.84a19.11,19.11,0,1,1,32.11,0h35.27v28.34a23.2,23.2,0,0,0-5.22-.58A24.52,24.52,0,0,0,79.49,190.71Z" transform="translate(-2.84 -3.25)"/><path class="cls-5" d="M261.17,223.48a4.69,4.69,0,0,0-1.7,3.41c.12,18-8.72,30.14-24.36,38.05a10,10,0,0,0-3,2.9c-11.35,14.22-26.41,20.26-42.69,14.47a38.48,38.48,0,0,1-17.84-12.92V231.16a18.3,18.3,0,1,1,0-29.75V164h26.26a24.53,24.53,0,1,0,47.33,0H275a41.53,41.53,0,0,1-3.45,10.1,4.86,4.86,0,0,0,.15,3.81C279.5,192.92,275.38,213.92,261.17,223.48Z" transform="translate(-2.84 -3.25)"/></svg>