<svg xmlns="http://www.w3.org/2000/svg" viewBox="0 0 100 100"><title>spray_icon</title><g id="Layer_4" data-name="Layer 4"><path d="M40.4,90.51a50,50,0,0,1-5.75,3.25,37.17,37.17,0,0,1-12.91,3.18c-.42,0-.84,0-1.24,0-2.28-.12-2.69-.43-3.35-2.62Q12.49,79.14,7.82,63.94a3,3,0,0,1,.56-3.15c1.49-1.82,2.86-3.73,4.32-5.58a2.55,2.55,0,0,1,1.1-.89c2.52-.84,5.05-1.62,7.61-2.33a3.07,3.07,0,0,1,1.7.2c2.28.71,4.53,1.5,6.81,2.22a2.46,2.46,0,0,1,1.77,1.82c1.59,5.27,3.22,10.53,4.83,15.8s3.13,10.34,4.78,15.49A2.32,2.32,0,0,1,40.4,90.51Z" style="fill:#ff931e"/><circle cx="42.29" cy="48.91" r="2.54" style="fill:#7ac943"/><circle cx="45.85" cy="38.66" r="2.54" style="fill:#7ac943"/><circle cx="49.47" cy="30.95" r="2.54" style="fill:#7ac943"/><circle cx="41.39" cy="12.1" r="2.54" style="fill:#7ac943"/><circle cx="66.93" cy="17.83" r="2.54" style="fill:#7ac943"/><circle cx="69.28" cy="10.15" r="2.54" style="fill:#7ac943"/><circle cx="90.8" cy="7.09" r="2.54" style="fill:#7ac943"/><circle cx="89.9" cy="30.86" r="2.54" style="fill:#7ac943"/><circle cx="66.31" cy="44.51" r="2.54" style="fill:#7ac943"/><circle cx="22.94" cy="36.68" r="2.54" style="fill:#7ac943"/><circle cx="31.16" cy="48.23" r="2.86" style="fill:#7ac943"/><circle cx="35.99" cy="37.95" r="3.49" style="fill:#7ac943"/><circle cx="35.12" cy="28.44" r="3.49" style="fill:#7ac943"/><circle cx="30.22" cy="22.53" r="2.54" style="fill:#7ac943"/><circle cx="45.2" cy="25.02" r="3.49" style="fill:#7ac943"/><circle cx="57.13" cy="19.65" r="4.13" style="fill:#7ac943"/><circle cx="58.78" cy="8.82" r="3.49" style="fill:#7ac943"/><circle cx="85.04" cy="18.34" r="2.86" style="fill:#7ac943"/><circle cx="76.13" cy="30.3" r="2.54" style="fill:#7ac943"/><circle cx="75.17" cy="43.03" r="2.54" style="fill:#7ac943"/><circle cx="64.67" cy="29.31" r="2.54" style="fill:#7ac943"/><circle cx="57.67" cy="41.86" r="4.13" style="fill:#7ac943"/><path d="M34.18,71.63c1.74,5.68,3.43,11.36,5.25,17a2.57,2.57,0,0,1-1,3.28,54.5,54.5,0,0,1-6.31,3.56A40.21,40.21,0,0,1,17.94,99a8.81,8.81,0,0,1-1.36,0c-2.5-.11-2.94-.46-3.68-2.86Q7.8,79.44,2.66,62.75a3.3,3.3,0,0,1,.62-3.46c1.64-2,3.14-4.1,4.74-6.12a3,3,0,0,1,1.21-1c2.77-.91,5.55-1.78,8.35-2.56a3.6,3.6,0,0,1,1.87.22c2.5.79,5,1.66,7.47,2.44a2.74,2.74,0,0,1,2,2C30.62,60.08,32.41,65.85,34.18,71.63ZM26.45,56.76A95.69,95.69,0,0,1,6.05,63c.07.32.12.58.19.83Q11,79.45,15.78,95.06c.25.82.7,1,1.41.91a39.16,39.16,0,0,0,18.42-5.64,1.27,1.27,0,0,0,.61-1.75Q31.48,73.27,26.8,57.92Zm-2.9-1.95C16.57,50.74,9.74,54,7,59.87Z" style="fill:#333"/><path d="M14.69,45.88c.08.26.16.51.23.76.24.87.75,1.78-.16,2.53a3.93,3.93,0,0,1-3.6.93c-1.16-.31-2.51-4.8-1.82-5.79a4.16,4.16,0,0,1,3.83-1.18,2.35,2.35,0,0,1,.95,1,10.28,10.28,0,0,1,.56,1.73Z" style="fill:#333"/></g><g id="Layer_3" data-name="Layer 3"><circle cx="41.38" cy="48.04" r="2.54" style="fill:none;stroke:#000;stroke-miterlimit:10;stroke-width:0.5px"/><circle cx="44.94" cy="37.79" r="2.54" style="fill:none;stroke:#000;stroke-miterlimit:10;stroke-width:0.5px"/><circle cx="48.56" cy="30.09" r="2.54" style="fill:none;stroke:#000;stroke-miterlimit:10;stroke-width:0.5px"/><circle cx="40.48" cy="11.23" r="2.54" style="fill:none;stroke:#000;stroke-miterlimit:10;stroke-width:0.5px"/><circle cx="66.02" cy="16.96" r="2.54" style="fill:none;stroke:#000;stroke-miterlimit:10;stroke-width:0.5px"/><circle cx="68.37" cy="9.28" r="2.54" style="fill:none;stroke:#000;stroke-miterlimit:10;stroke-width:0.5px"/><circle cx="89.89" cy="6.22" r="2.54" style="fill:none;stroke:#000;stroke-miterlimit:10;stroke-width:0.5px"/><circle cx="88.99" cy="30" r="2.54" style="fill:none;stroke:#000;stroke-miterlimit:10;stroke-width:0.5px"/><circle cx="65.4" cy="43.65" r="2.54" style="fill:none;stroke:#000;stroke-miterlimit:10;stroke-width:0.5px"/><circle cx="22.03" cy="35.81" r="2.54" style="fill:none;stroke:#000;stroke-miterlimit:10;stroke-width:0.5px"/><circle cx="30.25" cy="47.36" r="2.86" style="fill:none;stroke:#000;stroke-miterlimit:10;stroke-width:0.5px"/><circle cx="35.08" cy="37.08" r="3.49" style="fill:none;stroke:#000;stroke-miterlimit:10;stroke-width:0.5px"/><circle cx="34.21" cy="27.58" r="3.49" style="fill:none;stroke:#000;stroke-miterlimit:10;stroke-width:0.5px"/><circle cx="29.31" cy="21.66" r="2.54" style="fill:none;stroke:#000;stroke-miterlimit:10;stroke-width:0.5px"/><circle cx="44.29" cy="24.16" r="3.49" style="fill:none;stroke:#000;stroke-miterlimit:10;stroke-width:0.5px"/><circle cx="56.22" cy="18.79" r="4.13" style="fill:none;stroke:#000;stroke-miterlimit:10;stroke-width:0.5px"/><circle cx="57.87" cy="7.95" r="3.49" style="fill:none;stroke:#000;stroke-miterlimit:10;stroke-width:0.5px"/><circle cx="84.13" cy="17.47" r="2.86" style="fill:none;stroke:#000;stroke-miterlimit:10;stroke-width:0.5px"/><circle cx="75.22" cy="29.44" r="2.54" style="fill:none;stroke:#000;stroke-miterlimit:10;stroke-width:0.5px"/><circle cx="74.26" cy="42.16" r="2.54" style="fill:none;stroke:#000;stroke-miterlimit:10;stroke-width:0.5px"/><circle cx="63.76" cy="28.45" r="2.54" style="fill:none;stroke:#000;stroke-miterlimit:10;stroke-width:0.5px"/><circle cx="56.76" cy="41" r="4.13" style="fill:none;stroke:#000;stroke-miterlimit:10;stroke-width:0.5px"/></g></svg>