<svg viewBox="0 0 63 55" fill="none" xmlns="http://www.w3.org/2000/svg">
<path d="M27.1099 24.22C30.8699 14.01 20.6799 10.66 20.6799 10.66C21.6231 11.9172 22.1841 13.4196 22.2958 14.9873C22.4076 16.555 22.0653 18.1217 21.3099 19.5C6.61994 32.11 15.5199 37.5 18.8199 38.89L48.6299 39.1C55.2799 22.76 44.3599 13.71 44.3599 13.71C44.3599 13.71 47.4899 19.8 38.3599 23.46L40.0799 22.94C45.4899 5.09 28.9999 2.59 28.9999 2.59C34.0599 4.01 32.8999 8.84 32.4399 10.26C32.3541 10.5092 32.1978 10.728 31.9899 10.89C30.1261 12.2406 28.563 13.9637 27.3999 15.95" fill="#F15A24"/>
<path d="M27.1099 24.22C30.8699 14.01 20.6799 10.66 20.6799 10.66C21.6231 11.9172 22.1841 13.4196 22.2958 14.9873C22.4076 16.555 22.0653 18.1217 21.3099 19.5C6.61994 32.11 15.5199 37.5 18.8199 38.89L48.6299 39.1C55.2799 22.76 44.3599 13.71 44.3599 13.71C44.3599 13.71 47.4899 19.8 38.3599 23.46L40.0799 22.94C45.4899 5.09 28.9999 2.59 28.9999 2.59C34.0599 4.01 32.8999 8.84 32.4399 10.26C32.3541 10.5092 32.1978 10.728 31.9899 10.89C30.1261 12.2406 28.563 13.9637 27.3999 15.95" stroke="#F15A24" stroke-width="0.75" stroke-linecap="round" stroke-linejoin="round"/>
<path d="M21.61 38.63C21.37 36.12 21.5 30.25 27.74 28.52C27.74 28.52 24.29 34.52 27.74 36.86C27.74 36.86 36.83 30.32 32.44 24.21C34.8209 25.5655 36.7219 27.6271 37.88 30.11C37.9138 30.1831 37.9373 30.2605 37.95 30.34L38.95 35.76C38.9014 36.8358 38.7473 37.9043 38.49 38.95L21.61 38.63Z" fill="#FBB03B"/>
<path d="M55.54 54.98L9.58997 54.4C7.90997 54.4 6.58997 51.22 6.58997 47.29V47.02C6.58997 42.97 8.06997 39.71 9.78997 39.73L56 40.31C55.9137 40.331 55.8299 40.3612 55.75 40.4L56 40.31C56.1192 40.2904 56.2408 40.2904 56.36 40.31C58.08 40.31 59.43 43.63 59.36 47.67C59.36 51.41 58.09 54.48 56.56 54.92L55.54 54.98Z" fill="#A67C52"/>
<path d="M54.53 53.63C54.6462 53.6453 54.7639 53.6453 54.88 53.63C56.57 53.7 58 50.5 58 46.5C58 42.5 56.72 39.22 55 39.2C54.8843 39.1794 54.7658 39.1794 54.65 39.2" stroke="#333333" stroke-miterlimit="10"/>
<path d="M51.89 46.39C51.89 50.11 52.99 53.2 54.53 53.63L8.78003 53.1C7.08003 53.1 5.78003 49.81 5.78003 45.8C5.78003 41.79 7.27003 38.56 9.00003 38.59L54.75 39.16V39.21C53.17 39.6 51.94 42.66 51.89 46.39Z" stroke="#333333" stroke-miterlimit="10"/>
<path d="M8.93005 43.79H21.0801" stroke="#333333" stroke-miterlimit="10" stroke-linecap="round"/>
<path d="M22.65 49.09L34.19 48.99" stroke="#333333" stroke-miterlimit="10" stroke-linecap="round"/>
<path d="M31.92 43.84L41.88 43.74" stroke="#333333" stroke-miterlimit="10" stroke-linecap="round"/>
<path d="M40.4399 49.1L48.1999 48.99" stroke="#333333" stroke-miterlimit="10" stroke-linecap="round"/>
<path d="M17.56 38.37C14.27 36.91 5.37004 31.37 20.02 18.43L20.07 18.37C20.8169 16.9493 21.1518 15.3482 21.037 13.7473C20.9221 12.1464 20.3621 10.6095 19.42 9.31C19.42 9.31 29.62 12.76 25.85 23.31" stroke="#333333" stroke-miterlimit="10" stroke-linecap="round"/>
<path d="M26.14 14.76C27.3434 12.6488 28.9791 10.8154 30.94 9.38C30.9974 9.33152 31.042 9.26971 31.07 9.2C31.38 8.35 33.25 2.59 27.74 1C27.74 1 44.39 3 39.03 21.38" stroke="#333333" stroke-miterlimit="10" stroke-linecap="round"/>
<path d="M37.14 22.5C46.24 18.74 43.14 12.5 43.14 12.5C43.14 12.5 54 21.77 47.38 38.58" stroke="#333333" stroke-miterlimit="10" stroke-linecap="round"/>
<path d="M38.33 35.36C38.2898 36.5679 38.1392 37.7696 37.88 38.95" stroke="#333333" stroke-miterlimit="10" stroke-linecap="round"/>
<path d="M21.0001 38.59C20.7601 35.77 20.8901 29.14 27.1301 27.18C27.1301 27.18 23.6801 33.93 27.1301 36.59C27.1301 36.59 36.2201 29.22 31.8301 22.32C34.3264 23.9521 36.2468 26.3273 37.3201 29.11" stroke="#333333" stroke-miterlimit="10" stroke-linecap="round"/>
<path d="M49.45 13.62L56.3499 9.39" stroke="#FBB03B" stroke-width="2" stroke-miterlimit="10" stroke-linecap="round"/>
<path d="M52.33 22.81L60.37 21.83" stroke="#FBB03B" stroke-width="2" stroke-miterlimit="10" stroke-linecap="round"/>
<path d="M53.53 30.57L61.37 32.58" stroke="#FBB03B" stroke-width="2" stroke-miterlimit="10" stroke-linecap="round"/>
<path d="M12.92 12.99L6.02002 8.75999" stroke="#FBB03B" stroke-width="2" stroke-miterlimit="10" stroke-linecap="round"/>
<path d="M10.04 22.18L2 21.21" stroke="#FBB03B" stroke-width="2" stroke-miterlimit="10" stroke-linecap="round"/>
<path d="M8.84 29.94L1 31.95" stroke="#FBB03B" stroke-width="2" stroke-miterlimit="10" stroke-linecap="round"/>
</svg>
