<svg viewBox="0 0 60 63" fill="none" xmlns="http://www.w3.org/2000/svg">
<path d="M36.2399 3.39H25.1199L19.5699 13.02L25.1199 22.65H36.2399L41.7999 13.02L36.2399 3.39Z" fill="#FBB03B" stroke="#FBB03B" stroke-miterlimit="10"/>
<path d="M19.2399 13.39H8.12995L2.56995 23.02L8.12995 32.65H19.2399L24.7999 23.02L19.2399 13.39Z" fill="#FBB03B" stroke="#FBB03B" stroke-miterlimit="10"/>
<path d="M19.2399 32.39H8.12995L2.56995 42.02L8.12995 51.65H19.2399L24.7999 42.02L19.2399 32.39Z" fill="#FBB03B" stroke="#FBB03B" stroke-miterlimit="10"/>
<path d="M36.2399 23.39H25.1199L19.5699 33.02L25.1199 42.65H36.2399L41.7999 33.02L36.2399 23.39Z" fill="#FBB03B" stroke="#FBB03B" stroke-miterlimit="10"/>
<path d="M36.2399 42.39H25.1199L19.5699 52.02L25.1199 61.65H36.2399L41.7999 52.02L36.2399 42.39Z" fill="#FBB03B" stroke="#FBB03B" stroke-miterlimit="10"/>
<path d="M53.2399 13.39H42.1199L36.5699 23.02L42.1199 32.65H53.2399L58.7999 23.02L53.2399 13.39Z" fill="#FBB03B" stroke="#FBB03B" stroke-miterlimit="10"/>
<path d="M35.24 20.63H23.83L18.12 30.52L23.83 40.4H35.24L40.95 30.52L35.24 20.63Z" stroke="black" stroke-miterlimit="10"/>
<path d="M35.24 1H23.83L18.12 10.88L23.83 20.77H35.24L40.95 10.88L35.24 1Z" stroke="black" stroke-miterlimit="10"/>
<path d="M52.59 11.27H41.18L35.47 21.16L41.18 31.04H52.59L58.3 21.16L52.59 11.27Z" stroke="black" stroke-miterlimit="10"/>
<path d="M1 20.7L6.7 10.82H18.12L23.83 20.7L18.12 30.59H6.7L1 20.7Z" stroke="black" stroke-miterlimit="10"/>
<path d="M30.79 3.92H25.52L22.88 8.49" stroke="black" stroke-miterlimit="10"/>
<path d="M13.44 13.74H8.17003L5.53003 18.3" stroke="black" stroke-miterlimit="10"/>
<path d="M18.58 30.45H7.15995L1.44995 40.33L7.15995 50.22H18.58L24.28 40.33L18.58 30.45Z" stroke="black" stroke-miterlimit="10"/>
<path d="M35.24 40.26H23.83L18.12 50.15L23.83 60.03H35.24L40.95 50.15L35.24 40.26Z" stroke="black" stroke-miterlimit="10"/>
<path d="M13.44 33.83H8.17003L5.53003 38.39" stroke="black" stroke-miterlimit="10"/>
</svg>
