<svg viewBox="0 0 52 61" fill="none" xmlns="http://www.w3.org/2000/svg">
<path d="M39 2L13 4C14 13 2 15 2 15C4 52 28 61 28 61C47 55 52 16 52 16C40 12 39 2 39 2ZM27.73 57.23C27.73 57.23 6.96 49.44 5.23 17.42C5.23 17.42 15.61 15.69 14.75 7.9L37.25 6.17C37.25 6.17 38.11 14.82 48.5 18.28C48.5 18.28 44.17 52.04 27.73 57.23Z" fill="#B3B3B3"/>
<path d="M12 3L38 1C38 1 39 11 51 15C51 15 46 54 27 60C27 60 3 51 1 14C1 14 13 12 12 3Z" stroke="black" stroke-linecap="round" stroke-linejoin="round"/>
<path d="M13.75 6.90001L36.25 5.17001C36.25 5.17001 37.11 13.82 47.5 17.28C47.5 17.28 43.17 51.04 26.73 56.23C26.73 56.23 5.95998 48.44 4.22998 16.42C4.22998 16.42 14.61 14.69 13.75 6.90001Z" stroke="black" stroke-linecap="round" stroke-linejoin="round"/>
<path d="M39.34 48.24C37.7587 47.7538 36.1347 47.419 34.49 47.24C30.9121 46.8764 27.2976 47.2161 23.85 48.24C23.45 48.3 22.85 48.24 22.21 48.35C19.84 48.67 11.89 48.78 16.04 34.65C16.04 34.65 21.73 24.78 22.45 17.65V17.74L22.04 17.86C20.16 18.3 17.97 18.74 17.63 18.54C16.2 19.27 14.12 17.19 14.12 17.19C11.21 13.31 16.06 10.4 16.06 10.4C16.9673 10.3248 17.8807 10.3855 18.77 10.58H18.7C18.7 10.58 32.5 10.4 36.38 9.42999C36.38 9.42999 45.12 13.31 36.38 29.81C36.38 29.81 31.53 38.55 35.38 39.52H39.26C39.26 39.52 44.2 44.35 39.34 48.24Z" fill="#F8E7BC"/>
<path d="M16.79 9.19C16.79 9.19 31 9 35 8C35 8 44 12 35 29C35 29 30 38 34 39H38C38 39 43 44 38 48C36.3681 47.512 34.6942 47.1772 33 47C29.3032 46.6141 25.5667 46.9538 22 48C21.59 48.06 21 48 20.31 48.12C17.87 48.45 9.68004 48.56 13.96 34C13.96 34 28.96 8 13.96 9C13.96 9 8.96004 12 11.96 16C11.96 16 14.58 18.62 16.02 17C16.58 16.39 16.96 15.17 16.96 13C16.96 12.4696 16.7493 11.9609 16.3743 11.5858C15.9992 11.2107 15.4905 11 14.96 11H19.33" stroke="black" stroke-linecap="round" stroke-linejoin="round"/>
<path d="M19.08 48.2C19.08 48.2 24 47 23 43C22 39 18 40 18 40C18 40 16 43 18 45C19.3435 44.0957 20.889 43.5359 22.5 43.37" stroke="black" stroke-linecap="round" stroke-linejoin="round"/>
<path d="M34 39C30 40 19 38 19 38C19 38 17 39 18 40" stroke="black" stroke-linecap="round" stroke-linejoin="round"/>
<path d="M20.16 16.69C18.21 17.14 15.93 17.6 15.59 17.38" stroke="black" stroke-linecap="round" stroke-linejoin="round"/>
<path d="M23 21L24.64 20.18C24.7523 20.1259 24.8754 20.0979 25 20.0979C25.1246 20.0979 25.2477 20.1259 25.36 20.18L27 21L28.73 20.13C28.8146 20.0906 28.9067 20.0703 29 20.0703C29.0933 20.0703 29.1854 20.0906 29.27 20.13L30.65 20.83C30.7586 20.8845 30.8785 20.9129 31 20.9129C31.1215 20.9129 31.2414 20.8845 31.35 20.83L32.5 20.27C32.6595 20.1796 32.8446 20.1453 33.0259 20.1725C33.2071 20.1997 33.3741 20.2868 33.5 20.42L33.75 20.67C33.8442 20.7666 33.967 20.8304 34.1002 20.852C34.2334 20.8737 34.3701 20.8519 34.49 20.79L36.08 20" stroke="#C1272D" stroke-linecap="round" stroke-linejoin="round"/>
<path d="M22 26L23.64 25.18C23.7523 25.1259 23.8754 25.0979 24 25.0979C24.1246 25.0979 24.2477 25.1259 24.36 25.18L26 26L27.73 25.13C27.8146 25.0906 27.9067 25.0703 28 25.0703C28.0933 25.0703 28.1854 25.0906 28.27 25.13L29.65 25.83C29.7586 25.8845 29.8785 25.9129 30 25.9129C30.1215 25.9129 30.2414 25.8845 30.35 25.83L31.5 25.27C31.6595 25.1796 31.8446 25.1453 32.0259 25.1725C32.2071 25.1997 32.3741 25.2868 32.5 25.42L32.75 25.67C32.8442 25.7666 32.967 25.8304 33.1002 25.852C33.2334 25.8737 33.3701 25.8519 33.49 25.79L35.08 25" stroke="#C1272D" stroke-linecap="round" stroke-linejoin="round"/>
<path d="M20 31L21.64 30.18C21.7523 30.1259 21.8754 30.0979 22 30.0979C22.1246 30.0979 22.2477 30.1259 22.36 30.18L24 31L25.73 30.13C25.8146 30.0906 25.9067 30.0703 26 30.0703C26.0933 30.0703 26.1854 30.0906 26.27 30.13L27.65 30.83C27.7586 30.8845 27.8785 30.9129 28 30.9129C28.1215 30.9129 28.2414 30.8845 28.35 30.83L29.5 30.27C29.6595 30.1796 29.8446 30.1453 30.0259 30.1725C30.2071 30.1997 30.3741 30.2868 30.5 30.42L30.75 30.67C30.8442 30.7666 30.967 30.8304 31.1002 30.852C31.2334 30.8737 31.3701 30.8519 31.49 30.79L33.08 30" stroke="#C1272D" stroke-linecap="round" stroke-linejoin="round"/>
<path d="M21.86 36L23.14 35.18C23.2236 35.1266 23.3208 35.0982 23.42 35.0982C23.5192 35.0982 23.6164 35.1266 23.7 35.18L24.98 36L26.33 35.13C26.3931 35.0911 26.4658 35.0704 26.54 35.0704C26.6142 35.0704 26.6869 35.0911 26.75 35.13L27.83 35.83C27.9096 35.8842 28.0037 35.9131 28.1 35.9131C28.1963 35.9131 28.2904 35.8842 28.37 35.83L29.24 35.27C29.36 35.1928 29.5054 35.1653 29.6453 35.1933C29.7853 35.2213 29.9089 35.3026 29.99 35.42L30.18 35.67C30.2412 35.7626 30.3366 35.8272 30.4452 35.8496C30.5539 35.8721 30.6671 35.8507 30.76 35.79L32 35" stroke="#C1272D" stroke-linecap="round" stroke-linejoin="round"/>
</svg>
